<svg xmlns="http://www.w3.org/2000/svg" width="1040" height="660" viewBox="0 0 1040 660">
  <rect width="100%" height="100%" fill="#ffffff"/>
  <style>
    text { font-family: Arial, Helvetica, sans-serif; fill: #1f2933; }
    .title { font-size: 22px; font-weight: 700; }
    .subtitle { font-size: 12px; fill: #52606d; }
    .axis { stroke: #9aa5b1; stroke-width: 1; }
    .grid { stroke: #d9e2ec; stroke-width: 1; stroke-dasharray: 4 5; }
    .label { font-size: 11px; fill: #334e68; }
    .tick { font-size: 10px; fill: #52606d; }
    .legend { font-size: 12px; fill: #334e68; }
  </style>
  <text class="title" x="36" y="34">Quality Retention vs Size Reduction</text>
<text class="subtitle" x="36" y="55">Best region is upper-right: high quality retention and high model-size reduction.</text>
<circle cx="594" cy="34" r="6" fill="#3b5b92"/>
<text class="legend" x="604" y="38">Baseline</text>
<circle cx="722" cy="34" r="6" fill="#087f5b"/>
<text class="legend" x="732" y="38">Quantization</text>
<circle cx="850" cy="34" r="6" fill="#d9480f"/>
<text class="legend" x="860" y="38">Pruning</text>
<circle cx="978" cy="34" r="6" fill="#7048e8"/>
<text class="legend" x="988" y="38">Combined</text>
<line class="axis" x1="86" y1="574" x2="988" y2="574"/>
<line class="axis" x1="86" y1="78" x2="86" y2="574"/>
<line class="grid" x1="126.2" y1="78" x2="126.2" y2="574"/>
<text class="tick" x="116.2" y="596">0%</text>
<line class="grid" x1="260.2" y1="78" x2="260.2" y2="574"/>
<text class="tick" x="250.2" y="596">10%</text>
<line class="grid" x1="394.2" y1="78" x2="394.2" y2="574"/>
<text class="tick" x="384.2" y="596">20%</text>
<line class="grid" x1="528.2" y1="78" x2="528.2" y2="574"/>
<text class="tick" x="518.2" y="596">30%</text>
<line class="grid" x1="662.2" y1="78" x2="662.2" y2="574"/>
<text class="tick" x="652.2" y="596">40%</text>
<line class="grid" x1="796.2" y1="78" x2="796.2" y2="574"/>
<text class="tick" x="786.2" y="596">50%</text>
<line class="grid" x1="930.2" y1="78" x2="930.2" y2="574"/>
<text class="tick" x="920.2" y="596">60%</text>
<line class="grid" x1="1064.2" y1="78" x2="1064.2" y2="574"/>
<text class="tick" x="1054.2" y="596">70%</text>
<line class="grid" x1="86" y1="574.0" x2="988" y2="574.0"/>
<text class="tick" x="41" y="578.0">0%</text>
<line class="grid" x1="86" y1="463.3" x2="988" y2="463.3"/>
<text class="tick" x="41" y="467.3">25%</text>
<line class="grid" x1="86" y1="352.6" x2="988" y2="352.6"/>
<text class="tick" x="41" y="356.6">50%</text>
<line class="grid" x1="86" y1="241.9" x2="988" y2="241.9"/>
<text class="tick" x="41" y="245.9">75%</text>
<line class="grid" x1="86" y1="131.1" x2="988" y2="131.1"/>
<text class="tick" x="41" y="135.1">100%</text>
<line class="grid" x1="86" y1="20.4" x2="988" y2="20.4"/>
<text class="tick" x="41" y="24.4">125%</text>
<circle cx="126.2" cy="131.1" r="9" fill="#3b5b92" fill-opacity="0.82"/>
<text class="label" x="138.2" y="135.1">Baseline</text>
<circle cx="921.0" cy="208.9" r="9" fill="#7048e8" fill-opacity="0.82"/>
<text class="label" x="933.0" y="212.9">Unstructured MLP L1 10 Prune + Dynamic INT8 PTQ</text>
<circle cx="921.0" cy="149.0" r="9" fill="#087f5b" fill-opacity="0.82"/>
<text class="label" x="933.0" y="153.0">Dynamic INT8 PTQ</text>
<circle cx="139.9" cy="251.5" r="9" fill="#d9480f" fill-opacity="0.82"/>
<text class="label" x="151.9" y="255.5">Unstructured Global L1 20 Prune</text>
<circle cx="829.9" cy="223.4" r="9" fill="#7048e8" fill-opacity="0.82"/>
<text class="label" x="841.9" y="227.4">Structured Attention Head 1 Prune + BF16</text>
<circle cx="139.9" cy="191.0" r="9" fill="#d9480f" fill-opacity="0.82"/>
<text class="label" x="151.9" y="195.0">Unstructured Global L1 10 Prune</text>
<circle cx="194.1" cy="176.3" r="9" fill="#d9480f" fill-opacity="0.82"/>
<text class="label" x="206.1" y="180.3">Structured Attention Head 1 Prune</text>
<circle cx="824.4" cy="229.8" r="9" fill="#7048e8" fill-opacity="0.82"/>
<text class="label" x="836.4" y="233.8">Structured MLP Intermediate 10 Prune + FP16</text>
<circle cx="183.1" cy="183.1" r="9" fill="#d9480f" fill-opacity="0.82"/>
<text class="label" x="195.1" y="187.1">Structured MLP Intermediate 10 Prune</text>
<circle cx="139.9" cy="172.0" r="9" fill="#d9480f" fill-opacity="0.82"/>
<text class="label" x="151.9" y="176.0">Unstructured Attention L1 10 Prune</text>
<circle cx="802.9" cy="143.5" r="9" fill="#087f5b" fill-opacity="0.82"/>
<text class="label" x="814.9" y="147.5">BF16</text>
<circle cx="802.9" cy="212.0" r="9" fill="#7048e8" fill-opacity="0.82"/>
<text class="label" x="814.9" y="216.0">BF16 + Unstructured MLP L1 10 Prune</text>
<circle cx="802.9" cy="215.3" r="9" fill="#7048e8" fill-opacity="0.82"/>
<text class="label" x="814.9" y="219.3">FP16 + Unstructured MLP L1 10 Prune</text>
<circle cx="802.9" cy="146.1" r="9" fill="#087f5b" fill-opacity="0.82"/>
<text class="label" x="814.9" y="150.1">FP16</text>
<circle cx="139.9" cy="158.1" r="9" fill="#d9480f" fill-opacity="0.82"/>
<text class="label" x="151.9" y="162.1">Unstructured MLP L1 10 Prune</text>
<text class="label" x="449.0" y="632">Disk size reduction vs reference</text>
<text class="label" transform="translate(24 402.0) rotate(-90)">Token F1 retention vs reference</text>
</svg>
