<svg xmlns="http://www.w3.org/2000/svg" width="1120" height="532" viewBox="0 0 1120 532">
  <rect width="100%" height="100%" fill="#ffffff"/>
  <style>
    text { font-family: Arial, Helvetica, sans-serif; fill: #1f2933; }
    .title { font-size: 22px; font-weight: 700; }
    .subtitle { font-size: 12px; fill: #52606d; }
    .axis { stroke: #9aa5b1; stroke-width: 1; }
    .grid { stroke: #d9e2ec; stroke-width: 1; stroke-dasharray: 4 5; }
    .label { font-size: 11px; fill: #334e68; }
    .tick { font-size: 10px; fill: #52606d; }
    .legend { font-size: 12px; fill: #334e68; }
  </style>
  <text class="title" x="36" y="34">Disk Size Comparison</text>
<text class="subtitle" x="36" y="55">Disk size in MB. Lower is better for on-device deployment.</text>
<text class="label" x="28" y="89">combined_unstructured_prune_then_quant__prune_unstructured_mlp_l1_10__dynamic_int8_cpu_ptq</text>
<rect x="316" y="72" width="301.7" height="25" fill="#7048e8" fill-opacity="0.84"/>
<text class="label" x="625.7" y="89">126.6</text>
<text class="label" x="28" y="131">dynamic_int8_cpu_ptq</text>
<rect x="316" y="114" width="301.7" height="25" fill="#087f5b" fill-opacity="0.84"/>
<text class="label" x="625.7" y="131">126.6</text>
<text class="label" x="28" y="173">bf16_cast_gpu</text>
<rect x="316" y="156" width="367.1" height="25" fill="#087f5b" fill-opacity="0.84"/>
<text class="label" x="691.1" y="173">154.0</text>
<text class="label" x="28" y="215">combined_quant_then_prune_selected__bf16_cast_gpu__prune_unstructured_mlp_l1_10</text>
<rect x="316" y="198" width="367.1" height="25" fill="#7048e8" fill-opacity="0.84"/>
<text class="label" x="691.1" y="215">154.0</text>
<text class="label" x="28" y="257">combined_quant_then_prune_selected__fp16_cast_gpu__prune_unstructured_mlp_l1_10</text>
<rect x="316" y="240" width="367.1" height="25" fill="#7048e8" fill-opacity="0.84"/>
<text class="label" x="691.1" y="257">154.0</text>
<text class="label" x="28" y="299">fp16_cast_gpu</text>
<rect x="316" y="282" width="367.1" height="25" fill="#087f5b" fill-opacity="0.84"/>
<text class="label" x="691.1" y="299">154.0</text>
<text class="label" x="28" y="341">prune_unstructured_attention_l1_10</text>
<rect x="316" y="324" width="734.0" height="25" fill="#d9480f" fill-opacity="0.84"/>
<text class="label" x="1058.0" y="341">307.9</text>
<text class="label" x="28" y="383">prune_unstructured_global_l1_10</text>
<rect x="316" y="366" width="734.0" height="25" fill="#d9480f" fill-opacity="0.84"/>
<text class="label" x="1058.0" y="383">307.9</text>
<text class="label" x="28" y="425">prune_unstructured_global_l1_20</text>
<rect x="316" y="408" width="734.0" height="25" fill="#d9480f" fill-opacity="0.84"/>
<text class="label" x="1058.0" y="425">307.9</text>
<text class="label" x="28" y="467">prune_unstructured_mlp_l1_10</text>
<rect x="316" y="450" width="734.0" height="25" fill="#d9480f" fill-opacity="0.84"/>
<text class="label" x="1058.0" y="467">307.9</text>
</svg>
