<svg xmlns="http://www.w3.org/2000/svg" width="1120" height="532" viewBox="0 0 1120 532">
  <rect width="100%" height="100%" fill="#ffffff"/>
  <style>
    text { font-family: Arial, Helvetica, sans-serif; fill: #1f2933; }
    .title { font-size: 22px; font-weight: 700; }
    .subtitle { font-size: 12px; fill: #52606d; }
    .axis { stroke: #9aa5b1; stroke-width: 1; }
    .grid { stroke: #d9e2ec; stroke-width: 1; stroke-dasharray: 4 5; }
    .label { font-size: 11px; fill: #334e68; }
    .tick { font-size: 10px; fill: #52606d; }
    .legend { font-size: 12px; fill: #334e68; }
  </style>
  <text class="title" x="36" y="34">Throughput Comparison</text>
<text class="subtitle" x="36" y="55">Examples per second. Higher is better, but only useful if quality remains acceptable.</text>
<text class="label" x="28" y="89">combined_quant_then_prune_selected__fp16_cast_gpu__prune_unstructured_mlp_l1_10</text>
<rect x="316" y="72" width="734.0" height="25" fill="#7048e8" fill-opacity="0.84"/>
<text class="label" x="1058.0" y="89">8.29</text>
<text class="label" x="28" y="131">prune_unstructured_mlp_l1_10</text>
<rect x="316" y="114" width="652.3" height="25" fill="#d9480f" fill-opacity="0.84"/>
<text class="label" x="976.3" y="131">7.37</text>
<text class="label" x="28" y="173">fp16_cast_gpu</text>
<rect x="316" y="156" width="543.5" height="25" fill="#087f5b" fill-opacity="0.84"/>
<text class="label" x="867.5" y="173">6.14</text>
<text class="label" x="28" y="215">prune_unstructured_attention_l1_10</text>
<rect x="316" y="198" width="539.4" height="25" fill="#d9480f" fill-opacity="0.84"/>
<text class="label" x="863.4" y="215">6.09</text>
<text class="label" x="28" y="257">combined_quant_then_prune_selected__bf16_cast_gpu__prune_unstructured_mlp_l1_10</text>
<rect x="316" y="240" width="523.7" height="25" fill="#7048e8" fill-opacity="0.84"/>
<text class="label" x="847.7" y="257">5.91</text>
<text class="label" x="28" y="299">bf16_cast_gpu</text>
<rect x="316" y="282" width="367.2" height="25" fill="#087f5b" fill-opacity="0.84"/>
<text class="label" x="691.2" y="299">4.15</text>
<text class="label" x="28" y="341">prune_unstructured_global_l1_10</text>
<rect x="316" y="324" width="263.6" height="25" fill="#d9480f" fill-opacity="0.84"/>
<text class="label" x="587.6" y="341">2.98</text>
<text class="label" x="28" y="383">prune_unstructured_global_l1_20</text>
<rect x="316" y="366" width="71.5" height="25" fill="#d9480f" fill-opacity="0.84"/>
<text class="label" x="395.5" y="383">0.81</text>
<text class="label" x="28" y="425">dynamic_int8_cpu_ptq</text>
<rect x="316" y="408" width="5.8" height="25" fill="#087f5b" fill-opacity="0.84"/>
<text class="label" x="329.8" y="425">0.07</text>
<text class="label" x="28" y="467">combined_unstructured_prune_then_quant__prune_unstructured_mlp_l1_10__dynamic_int8_cpu_ptq</text>
<rect x="316" y="450" width="5.7" height="25" fill="#7048e8" fill-opacity="0.84"/>
<text class="label" x="329.7" y="467">0.06</text>
</svg>
