<svg xmlns="http://www.w3.org/2000/svg" width="1180" height="552" viewBox="0 0 1180 552">
  <rect width="100%" height="100%" fill="#ffffff"/>
  <style>
    text { font-family: Arial, Helvetica, sans-serif; fill: #1f2933; }
    .title { font-size: 22px; font-weight: 700; }
    .subtitle { font-size: 12px; fill: #52606d; }
    .axis { stroke: #9aa5b1; stroke-width: 1; }
    .grid { stroke: #d9e2ec; stroke-width: 1; stroke-dasharray: 4 5; }
    .label { font-size: 11px; fill: #334e68; }
    .tick { font-size: 10px; fill: #52606d; }
    .legend { font-size: 12px; fill: #334e68; }
  </style>
  <text class="title" x="36" y="34">Gated Balanced Score Ranking</text>
<text class="subtitle" x="36" y="55">Accuracy gate: Token F1 retention must be at least 85% of the selected reference. Passing models are ranked by efficiency: latency 40%, throughput 35%, disk size 25%.</text>
<rect x="835" y="28" width="14" height="14" fill="#087f5b" fill-opacity="0.84"/><text class="legend" x="856" y="40">Pass gate</text>
<rect x="940" y="28" width="14" height="14" fill="#9aa5b1" fill-opacity="0.84"/><text class="legend" x="961" y="40">Filtered out</text>
<text class="label" x="360" y="76">Efficiency score</text>
<text class="label" x="870" y="76">Token F1 retention</text>
<text class="label" x="28" y="104">prune_unstructured_attention_l1_10</text>
<rect x="360" y="88" width="390" height="24" fill="#eef2f7" stroke="#d9e2ec"/>
<rect x="360" y="88" width="292.5" height="24" fill="#d9480f" fill-opacity="0.84"/>
<text class="label" x="660.5" y="104">0.750</text>
<rect x="870" y="88" width="260" height="24" fill="#eef2f7" stroke="#d9e2ec"/>
<rect x="870" y="88" width="260.0" height="24" fill="#d9480f" fill-opacity="0.62"/>
<text class="label" x="1138.0" y="104">100.0%</text>
<text class="label" x="28" y="146">prune_unstructured_global_l1_10</text>
<rect x="360" y="130" width="390" height="24" fill="#eef2f7" stroke="#d9e2ec"/>
<rect x="360" y="130" width="220.2" height="24" fill="#d9480f" fill-opacity="0.84"/>
<text class="label" x="588.2" y="146">0.565</text>
<rect x="870" y="130" width="260" height="24" fill="#eef2f7" stroke="#d9e2ec"/>
<rect x="870" y="130" width="260.0" height="24" fill="#d9480f" fill-opacity="0.62"/>
<text class="label" x="1138.0" y="146">550.0%</text>
<text class="label" x="28" y="188">prune_unstructured_global_l1_20</text>
<rect x="360" y="172" width="390" height="24" fill="#eef2f7" stroke="#d9e2ec"/>
<rect x="360" y="172" width="161.9" height="24" fill="#d9480f" fill-opacity="0.84"/>
<text class="label" x="529.9" y="188">0.415</text>
<rect x="870" y="172" width="260" height="24" fill="#eef2f7" stroke="#d9e2ec"/>
<rect x="870" y="172" width="260.0" height="24" fill="#d9480f" fill-opacity="0.62"/>
<text class="label" x="1138.0" y="188">1812.5%</text>
<text class="label" x="28" y="230">dynamic_int8_cpu_ptq</text>
<rect x="360" y="214" width="390" height="24" fill="#eef2f7" stroke="#d9e2ec"/>
<rect x="360" y="214" width="99.5" height="24" fill="#087f5b" fill-opacity="0.84"/>
<text class="label" x="467.5" y="230">0.255</text>
<rect x="870" y="214" width="260" height="24" fill="#eef2f7" stroke="#d9e2ec"/>
<rect x="870" y="214" width="260.0" height="24" fill="#087f5b" fill-opacity="0.62"/>
<text class="label" x="1138.0" y="230">13693.8%</text>
<text class="label" x="28" y="272">combined_unstructured_prune_then_quant__prune_unstructured_mlp_l1_10__dynamic_int8_cpu_ptq</text>
<rect x="360" y="256" width="390" height="24" fill="#eef2f7" stroke="#d9e2ec"/>
<rect x="360" y="256" width="97.5" height="24" fill="#7048e8" fill-opacity="0.84"/>
<text class="label" x="465.5" y="272">0.250</text>
<rect x="870" y="256" width="260" height="24" fill="#eef2f7" stroke="#d9e2ec"/>
<rect x="870" y="256" width="260.0" height="24" fill="#7048e8" fill-opacity="0.62"/>
<text class="label" x="1138.0" y="272">13975.0%</text>
<text class="label" x="28" y="314">bf16_cast_gpu</text>
<rect x="360" y="298" width="390" height="24" fill="#eef2f7" stroke="#d9e2ec"/>
<rect x="360" y="298" width="8" height="24" fill="#9aa5b1" fill-opacity="0.84"/>
<text class="label" x="376" y="314">filtered</text>
<rect x="870" y="298" width="260" height="24" fill="#eef2f7" stroke="#d9e2ec"/>
<rect x="870" y="298" width="0.0" height="24" fill="#9aa5b1" fill-opacity="0.62"/>
<text class="label" x="878.0" y="314">0.0%</text>
<text class="label" x="28" y="356">combined_quant_then_prune_selected__bf16_cast_gpu__prune_unstructured_mlp_l1_10</text>
<rect x="360" y="340" width="390" height="24" fill="#eef2f7" stroke="#d9e2ec"/>
<rect x="360" y="340" width="8" height="24" fill="#9aa5b1" fill-opacity="0.84"/>
<text class="label" x="376" y="356">filtered</text>
<rect x="870" y="340" width="260" height="24" fill="#eef2f7" stroke="#d9e2ec"/>
<rect x="870" y="340" width="0.0" height="24" fill="#9aa5b1" fill-opacity="0.62"/>
<text class="label" x="878.0" y="356">0.0%</text>
<text class="label" x="28" y="398">combined_quant_then_prune_selected__fp16_cast_gpu__prune_unstructured_mlp_l1_10</text>
<rect x="360" y="382" width="390" height="24" fill="#eef2f7" stroke="#d9e2ec"/>
<rect x="360" y="382" width="8" height="24" fill="#9aa5b1" fill-opacity="0.84"/>
<text class="label" x="376" y="398">filtered</text>
<rect x="870" y="382" width="260" height="24" fill="#eef2f7" stroke="#d9e2ec"/>
<rect x="870" y="382" width="0.0" height="24" fill="#9aa5b1" fill-opacity="0.62"/>
<text class="label" x="878.0" y="398">0.0%</text>
<text class="label" x="28" y="440">fp16_cast_gpu</text>
<rect x="360" y="424" width="390" height="24" fill="#eef2f7" stroke="#d9e2ec"/>
<rect x="360" y="424" width="8" height="24" fill="#9aa5b1" fill-opacity="0.84"/>
<text class="label" x="376" y="440">filtered</text>
<rect x="870" y="424" width="260" height="24" fill="#eef2f7" stroke="#d9e2ec"/>
<rect x="870" y="424" width="0.0" height="24" fill="#9aa5b1" fill-opacity="0.62"/>
<text class="label" x="878.0" y="440">0.0%</text>
<text class="label" x="28" y="482">prune_unstructured_mlp_l1_10</text>
<rect x="360" y="466" width="390" height="24" fill="#eef2f7" stroke="#d9e2ec"/>
<rect x="360" y="466" width="8" height="24" fill="#9aa5b1" fill-opacity="0.84"/>
<text class="label" x="376" y="482">filtered</text>
<rect x="870" y="466" width="260" height="24" fill="#eef2f7" stroke="#d9e2ec"/>
<rect x="870" y="466" width="0.0" height="24" fill="#9aa5b1" fill-opacity="0.62"/>
<text class="label" x="878.0" y="482">0.0%</text>
</svg>
