<svg xmlns="http://www.w3.org/2000/svg" width="1120" height="742" viewBox="0 0 1120 742">
  <rect width="100%" height="100%" fill="#ffffff"/>
  <style>
    text { font-family: Arial, Helvetica, sans-serif; fill: #1f2933; }
    .title { font-size: 22px; font-weight: 700; }
    .subtitle { font-size: 12px; fill: #52606d; }
    .axis { stroke: #9aa5b1; stroke-width: 1; }
    .grid { stroke: #d9e2ec; stroke-width: 1; stroke-dasharray: 4 5; }
    .label { font-size: 11px; fill: #334e68; }
    .tick { font-size: 10px; fill: #52606d; }
    .legend { font-size: 12px; fill: #334e68; }
  </style>
  <text class="title" x="36" y="34">Disk Size Comparison</text>
<text class="subtitle" x="36" y="55">Disk size in MB. Lower is better for on-device deployment.</text>
<text class="label" x="28" y="89">Unstructured MLP L1 10 Prune +</text>
<text class="label" x="28" y="102">Dynamic INT8 PTQ</text>
<rect x="316" y="72" width="298.6" height="25" fill="#7048e8" fill-opacity="0.84"/>
<text class="label" x="622.6" y="89">126.6</text>
<text class="label" x="28" y="131">Dynamic INT8 PTQ</text>
<rect x="316" y="114" width="298.6" height="25" fill="#087f5b" fill-opacity="0.84"/>
<text class="label" x="622.6" y="131">126.6</text>
<text class="label" x="28" y="173">Structured Attention Head 1</text>
<text class="label" x="28" y="186">Prune + BF16</text>
<rect x="316" y="156" width="348.5" height="25" fill="#7048e8" fill-opacity="0.84"/>
<text class="label" x="672.5" y="173">147.7</text>
<text class="label" x="28" y="215">Structured MLP Intermediate 10</text>
<text class="label" x="28" y="228">Prune + FP16</text>
<rect x="316" y="198" width="351.5" height="25" fill="#7048e8" fill-opacity="0.84"/>
<text class="label" x="675.5" y="215">149.0</text>
<text class="label" x="28" y="257">BF16</text>
<rect x="316" y="240" width="363.4" height="25" fill="#087f5b" fill-opacity="0.84"/>
<text class="label" x="687.4" y="257">154.0</text>
<text class="label" x="28" y="299">BF16 + Unstructured MLP L1 10</text>
<text class="label" x="28" y="312">Prune</text>
<rect x="316" y="282" width="363.4" height="25" fill="#7048e8" fill-opacity="0.84"/>
<text class="label" x="687.4" y="299">154.0</text>
<text class="label" x="28" y="341">FP16 + Unstructured MLP L1 10</text>
<text class="label" x="28" y="354">Prune</text>
<rect x="316" y="324" width="363.4" height="25" fill="#7048e8" fill-opacity="0.84"/>
<text class="label" x="687.4" y="341">154.0</text>
<text class="label" x="28" y="383">FP16</text>
<rect x="316" y="366" width="363.4" height="25" fill="#087f5b" fill-opacity="0.84"/>
<text class="label" x="687.4" y="383">154.0</text>
<text class="label" x="28" y="425">Structured Attention Head 1</text>
<text class="label" x="28" y="438">Prune</text>
<rect x="316" y="408" width="696.8" height="25" fill="#d9480f" fill-opacity="0.84"/>
<text class="label" x="1020.8" y="425">295.4</text>
<text class="label" x="28" y="467">Structured MLP Intermediate 10</text>
<text class="label" x="28" y="480">Prune</text>
<rect x="316" y="450" width="702.8" height="25" fill="#d9480f" fill-opacity="0.84"/>
<text class="label" x="1026.8" y="467">297.9</text>
<text class="label" x="28" y="509">Unstructured Global L1 20 Prune</text>
<rect x="316" y="492" width="726.5" height="25" fill="#d9480f" fill-opacity="0.84"/>
<text class="label" x="1050.5" y="509">307.9</text>
<text class="label" x="28" y="551">Unstructured Global L1 10 Prune</text>
<rect x="316" y="534" width="726.5" height="25" fill="#d9480f" fill-opacity="0.84"/>
<text class="label" x="1050.5" y="551">307.9</text>
<text class="label" x="28" y="593">Unstructured Attention L1 10</text>
<text class="label" x="28" y="606">Prune</text>
<rect x="316" y="576" width="726.5" height="25" fill="#d9480f" fill-opacity="0.84"/>
<text class="label" x="1050.5" y="593">307.9</text>
<text class="label" x="28" y="635">Unstructured MLP L1 10 Prune</text>
<rect x="316" y="618" width="726.5" height="25" fill="#d9480f" fill-opacity="0.84"/>
<text class="label" x="1050.5" y="635">307.9</text>
<text class="label" x="28" y="677">Baseline</text>
<rect x="316" y="660" width="734.0" height="25" fill="#3b5b92" fill-opacity="0.84"/>
<text class="label" x="1058.0" y="677">311.1</text>
</svg>
