<svg xmlns="http://www.w3.org/2000/svg" width="1120" height="742" viewBox="0 0 1120 742">
  <rect width="100%" height="100%" fill="#ffffff"/>
  <style>
    text { font-family: Arial, Helvetica, sans-serif; fill: #1f2933; }
    .title { font-size: 22px; font-weight: 700; }
    .subtitle { font-size: 12px; fill: #52606d; }
    .axis { stroke: #9aa5b1; stroke-width: 1; }
    .grid { stroke: #d9e2ec; stroke-width: 1; stroke-dasharray: 4 5; }
    .label { font-size: 11px; fill: #334e68; }
    .tick { font-size: 10px; fill: #52606d; }
    .legend { font-size: 12px; fill: #334e68; }
  </style>
  <text class="title" x="36" y="34">Throughput Comparison</text>
<text class="subtitle" x="36" y="55">Examples per second. Higher is better, but only useful if quality remains acceptable.</text>
<text class="label" x="28" y="89">FP16 + Unstructured MLP L1 10</text>
<text class="label" x="28" y="102">Prune</text>
<rect x="316" y="72" width="734.0" height="25" fill="#7048e8" fill-opacity="0.84"/>
<text class="label" x="1058.0" y="89">8.29</text>
<text class="label" x="28" y="131">Unstructured MLP L1 10 Prune</text>
<rect x="316" y="114" width="652.3" height="25" fill="#d9480f" fill-opacity="0.84"/>
<text class="label" x="976.3" y="131">7.37</text>
<text class="label" x="28" y="173">FP16</text>
<rect x="316" y="156" width="543.5" height="25" fill="#087f5b" fill-opacity="0.84"/>
<text class="label" x="867.5" y="173">6.14</text>
<text class="label" x="28" y="215">Structured MLP Intermediate 10</text>
<text class="label" x="28" y="228">Prune + FP16</text>
<rect x="316" y="198" width="543.5" height="25" fill="#7048e8" fill-opacity="0.84"/>
<text class="label" x="867.5" y="215">6.14</text>
<text class="label" x="28" y="257">Unstructured Attention L1 10</text>
<text class="label" x="28" y="270">Prune</text>
<rect x="316" y="240" width="539.4" height="25" fill="#d9480f" fill-opacity="0.84"/>
<text class="label" x="863.4" y="257">6.09</text>
<text class="label" x="28" y="299">BF16 + Unstructured MLP L1 10</text>
<text class="label" x="28" y="312">Prune</text>
<rect x="316" y="282" width="523.7" height="25" fill="#7048e8" fill-opacity="0.84"/>
<text class="label" x="847.7" y="299">5.91</text>
<text class="label" x="28" y="341">Structured Attention Head 1</text>
<text class="label" x="28" y="354">Prune</text>
<rect x="316" y="324" width="460.0" height="25" fill="#d9480f" fill-opacity="0.84"/>
<text class="label" x="784.0" y="341">5.20</text>
<text class="label" x="28" y="383">Structured MLP Intermediate 10</text>
<text class="label" x="28" y="396">Prune</text>
<rect x="316" y="366" width="459.5" height="25" fill="#d9480f" fill-opacity="0.84"/>
<text class="label" x="783.5" y="383">5.19</text>
<text class="label" x="28" y="425">BF16</text>
<rect x="316" y="408" width="367.2" height="25" fill="#087f5b" fill-opacity="0.84"/>
<text class="label" x="691.2" y="425">4.15</text>
<text class="label" x="28" y="467">Unstructured Global L1 10 Prune</text>
<rect x="316" y="450" width="263.6" height="25" fill="#d9480f" fill-opacity="0.84"/>
<text class="label" x="587.6" y="467">2.98</text>
<text class="label" x="28" y="509">Structured Attention Head 1</text>
<text class="label" x="28" y="522">Prune + BF16</text>
<rect x="316" y="492" width="192.6" height="25" fill="#7048e8" fill-opacity="0.84"/>
<text class="label" x="516.6" y="509">2.18</text>
<text class="label" x="28" y="551">Unstructured Global L1 20 Prune</text>
<rect x="316" y="534" width="71.5" height="25" fill="#d9480f" fill-opacity="0.84"/>
<text class="label" x="395.5" y="551">0.81</text>
<text class="label" x="28" y="593">Baseline</text>
<rect x="316" y="576" width="16.2" height="25" fill="#3b5b92" fill-opacity="0.84"/>
<text class="label" x="340.2" y="593">0.18</text>
<text class="label" x="28" y="635">Dynamic INT8 PTQ</text>
<rect x="316" y="618" width="5.8" height="25" fill="#087f5b" fill-opacity="0.84"/>
<text class="label" x="329.8" y="635">0.07</text>
<text class="label" x="28" y="677">Unstructured MLP L1 10 Prune +</text>
<text class="label" x="28" y="690">Dynamic INT8 PTQ</text>
<rect x="316" y="660" width="5.7" height="25" fill="#7048e8" fill-opacity="0.84"/>
<text class="label" x="329.7" y="677">0.06</text>
</svg>
