<svg xmlns="http://www.w3.org/2000/svg" width="1180" height="762" viewBox="0 0 1180 762">
  <rect width="100%" height="100%" fill="#ffffff"/>
  <style>
    text { font-family: Arial, Helvetica, sans-serif; fill: #1f2933; }
    .title { font-size: 22px; font-weight: 700; }
    .subtitle { font-size: 12px; fill: #52606d; }
    .axis { stroke: #9aa5b1; stroke-width: 1; }
    .grid { stroke: #d9e2ec; stroke-width: 1; stroke-dasharray: 4 5; }
    .label { font-size: 11px; fill: #334e68; }
    .tick { font-size: 10px; fill: #52606d; }
    .legend { font-size: 12px; fill: #334e68; }
  </style>
  <text class="title" x="36" y="34">Gated Balanced Score Ranking</text>
<text class="subtitle" x="36" y="55">Accuracy gate: Token F1 retention must be at least 85% of baseline. Passing models are ranked by efficiency: latency 40%, throughput 35%, disk size 25%.</text>
<rect x="835" y="28" width="14" height="14" fill="#087f5b" fill-opacity="0.84"/><text class="legend" x="856" y="40">Pass gate</text>
<rect x="940" y="28" width="14" height="14" fill="#9aa5b1" fill-opacity="0.84"/><text class="legend" x="961" y="40">Filtered out</text>
<text class="label" x="360" y="76">Efficiency score</text>
<text class="label" x="870" y="76">Token F1 retention</text>
<text class="label" x="28" y="104">FP16</text>
<rect x="360" y="88" width="390" height="24" fill="#eef2f7" stroke="#d9e2ec"/>
<rect x="360" y="88" width="352.3" height="24" fill="#087f5b" fill-opacity="0.84"/>
<text class="label" x="720.3" y="104">0.903</text>
<rect x="870" y="88" width="260" height="24" fill="#eef2f7" stroke="#d9e2ec"/>
<rect x="870" y="88" width="251.2" height="24" fill="#087f5b" fill-opacity="0.62"/>
<text class="label" x="1129.2" y="104">96.6%</text>
<text class="label" x="28" y="146">BF16</text>
<rect x="360" y="130" width="390" height="24" fill="#eef2f7" stroke="#d9e2ec"/>
<rect x="360" y="130" width="314.2" height="24" fill="#087f5b" fill-opacity="0.84"/>
<text class="label" x="682.2" y="146">0.806</text>
<rect x="870" y="130" width="260" height="24" fill="#eef2f7" stroke="#d9e2ec"/>
<rect x="870" y="130" width="252.7" height="24" fill="#087f5b" fill-opacity="0.62"/>
<text class="label" x="1130.7" y="146">97.2%</text>
<text class="label" x="28" y="188">Unstructured MLP L1 10 Prune</text>
<rect x="360" y="172" width="390" height="24" fill="#eef2f7" stroke="#d9e2ec"/>
<rect x="360" y="172" width="294.2" height="24" fill="#d9480f" fill-opacity="0.84"/>
<text class="label" x="662.2" y="188">0.754</text>
<rect x="870" y="172" width="260" height="24" fill="#eef2f7" stroke="#d9e2ec"/>
<rect x="870" y="172" width="244.2" height="24" fill="#d9480f" fill-opacity="0.62"/>
<text class="label" x="1122.2" y="188">93.9%</text>
<text class="label" x="28" y="230">Unstructured Attention L1 10 Prune</text>
<rect x="360" y="214" width="390" height="24" fill="#eef2f7" stroke="#d9e2ec"/>
<rect x="360" y="214" width="270.1" height="24" fill="#d9480f" fill-opacity="0.84"/>
<text class="label" x="638.1" y="230">0.692</text>
<rect x="870" y="214" width="260" height="24" fill="#eef2f7" stroke="#d9e2ec"/>
<rect x="870" y="214" width="236.0" height="24" fill="#d9480f" fill-opacity="0.62"/>
<text class="label" x="1114.0" y="230">90.8%</text>
<text class="label" x="28" y="272">Structured Attention Head 1 Prune</text>
<rect x="360" y="256" width="390" height="24" fill="#eef2f7" stroke="#d9e2ec"/>
<rect x="360" y="256" width="259.6" height="24" fill="#d9480f" fill-opacity="0.84"/>
<text class="label" x="627.6" y="272">0.666</text>
<rect x="870" y="256" width="260" height="24" fill="#eef2f7" stroke="#d9e2ec"/>
<rect x="870" y="256" width="233.5" height="24" fill="#d9480f" fill-opacity="0.62"/>
<text class="label" x="1111.5" y="272">89.8%</text>
<text class="label" x="28" y="314">Structured MLP Intermediate 10</text>
<text class="label" x="28" y="327">Prune</text>
<rect x="360" y="298" width="390" height="24" fill="#eef2f7" stroke="#d9e2ec"/>
<rect x="360" y="298" width="258.2" height="24" fill="#d9480f" fill-opacity="0.84"/>
<text class="label" x="626.2" y="314">0.662</text>
<rect x="870" y="298" width="260" height="24" fill="#eef2f7" stroke="#d9e2ec"/>
<rect x="870" y="298" width="229.5" height="24" fill="#d9480f" fill-opacity="0.62"/>
<text class="label" x="1107.5" y="314">88.3%</text>
<text class="label" x="28" y="356">Unstructured Global L1 10 Prune</text>
<rect x="360" y="340" width="390" height="24" fill="#eef2f7" stroke="#d9e2ec"/>
<rect x="360" y="340" width="210.1" height="24" fill="#d9480f" fill-opacity="0.84"/>
<text class="label" x="578.1" y="356">0.539</text>
<rect x="870" y="340" width="260" height="24" fill="#eef2f7" stroke="#d9e2ec"/>
<rect x="870" y="340" width="224.8" height="24" fill="#d9480f" fill-opacity="0.62"/>
<text class="label" x="1102.8" y="356">86.5%</text>
<text class="label" x="28" y="398">Baseline</text>
<rect x="360" y="382" width="390" height="24" fill="#eef2f7" stroke="#d9e2ec"/>
<rect x="360" y="382" width="103.0" height="24" fill="#3b5b92" fill-opacity="0.84"/>
<text class="label" x="471.0" y="398">0.264</text>
<rect x="870" y="382" width="260" height="24" fill="#eef2f7" stroke="#d9e2ec"/>
<rect x="870" y="382" width="260.0" height="24" fill="#3b5b92" fill-opacity="0.62"/>
<text class="label" x="1138.0" y="398">100.0%</text>
<text class="label" x="28" y="440">Dynamic INT8 PTQ</text>
<rect x="360" y="424" width="390" height="24" fill="#eef2f7" stroke="#d9e2ec"/>
<rect x="360" y="424" width="97.5" height="24" fill="#087f5b" fill-opacity="0.84"/>
<text class="label" x="465.5" y="440">0.250</text>
<rect x="870" y="424" width="260" height="24" fill="#eef2f7" stroke="#d9e2ec"/>
<rect x="870" y="424" width="249.5" height="24" fill="#087f5b" fill-opacity="0.62"/>
<text class="label" x="1127.5" y="440">96.0%</text>
<text class="label" x="28" y="482">Unstructured MLP L1 10 Prune +</text>
<text class="label" x="28" y="495">Dynamic INT8 PTQ</text>
<rect x="360" y="466" width="390" height="24" fill="#eef2f7" stroke="#d9e2ec"/>
<rect x="360" y="466" width="8" height="24" fill="#9aa5b1" fill-opacity="0.84"/>
<text class="label" x="376" y="482">filtered</text>
<rect x="870" y="466" width="260" height="24" fill="#eef2f7" stroke="#d9e2ec"/>
<rect x="870" y="466" width="214.4" height="24" fill="#9aa5b1" fill-opacity="0.62"/>
<text class="label" x="1092.4" y="482">82.5%</text>
<text class="label" x="28" y="524">BF16 + Unstructured MLP L1 10</text>
<text class="label" x="28" y="537">Prune</text>
<rect x="360" y="508" width="390" height="24" fill="#eef2f7" stroke="#d9e2ec"/>
<rect x="360" y="508" width="8" height="24" fill="#9aa5b1" fill-opacity="0.84"/>
<text class="label" x="376" y="524">filtered</text>
<rect x="870" y="508" width="260" height="24" fill="#eef2f7" stroke="#d9e2ec"/>
<rect x="870" y="508" width="212.6" height="24" fill="#9aa5b1" fill-opacity="0.62"/>
<text class="label" x="1090.6" y="524">81.8%</text>
<text class="label" x="28" y="566">FP16 + Unstructured MLP L1 10</text>
<text class="label" x="28" y="579">Prune</text>
<rect x="360" y="550" width="390" height="24" fill="#eef2f7" stroke="#d9e2ec"/>
<rect x="360" y="550" width="8" height="24" fill="#9aa5b1" fill-opacity="0.84"/>
<text class="label" x="376" y="566">filtered</text>
<rect x="870" y="550" width="260" height="24" fill="#eef2f7" stroke="#d9e2ec"/>
<rect x="870" y="550" width="210.6" height="24" fill="#9aa5b1" fill-opacity="0.62"/>
<text class="label" x="1088.6" y="566">81.0%</text>
<text class="label" x="28" y="608">Structured Attention Head 1 Prune</text>
<text class="label" x="28" y="621">+ BF16</text>
<rect x="360" y="592" width="390" height="24" fill="#eef2f7" stroke="#d9e2ec"/>
<rect x="360" y="592" width="8" height="24" fill="#9aa5b1" fill-opacity="0.84"/>
<text class="label" x="376" y="608">filtered</text>
<rect x="870" y="592" width="260" height="24" fill="#eef2f7" stroke="#d9e2ec"/>
<rect x="870" y="592" width="205.8" height="24" fill="#9aa5b1" fill-opacity="0.62"/>
<text class="label" x="1083.8" y="608">79.2%</text>
<text class="label" x="28" y="650">Structured MLP Intermediate 10</text>
<text class="label" x="28" y="663">Prune + FP16</text>
<rect x="360" y="634" width="390" height="24" fill="#eef2f7" stroke="#d9e2ec"/>
<rect x="360" y="634" width="8" height="24" fill="#9aa5b1" fill-opacity="0.84"/>
<text class="label" x="376" y="650">filtered</text>
<rect x="870" y="634" width="260" height="24" fill="#eef2f7" stroke="#d9e2ec"/>
<rect x="870" y="634" width="202.1" height="24" fill="#9aa5b1" fill-opacity="0.62"/>
<text class="label" x="1080.1" y="650">77.7%</text>
<text class="label" x="28" y="692">Unstructured Global L1 20 Prune</text>
<rect x="360" y="676" width="390" height="24" fill="#eef2f7" stroke="#d9e2ec"/>
<rect x="360" y="676" width="8" height="24" fill="#9aa5b1" fill-opacity="0.84"/>
<text class="label" x="376" y="692">filtered</text>
<rect x="870" y="676" width="260" height="24" fill="#eef2f7" stroke="#d9e2ec"/>
<rect x="870" y="676" width="189.3" height="24" fill="#9aa5b1" fill-opacity="0.62"/>
<text class="label" x="1067.3" y="692">72.8%</text>
</svg>
